let routine = {
  "header": {
    "PPQ": 1024,
    "timeSignature": [
      4,
      4
    ],
    "bpm": 120.00024000048,
    "name": ""
  },
  "startTime": 0,
  "duration": 18.499474719726546,
  "tracks": [
    {
      "startTime": 0,
      "duration": 0,
      "length": 0,
      "notes": [],
      "controlChanges": {},
      "id": 0
    },
    {
      "startTime": 0.0048828027343749995,
      "duration": 18.499474719726546,
      "length": 109,
      "notes": [
        {
          "name": "B1",
          "midi": 35,
          "time": 0.0048828027343749995,
          "velocity": 0.5433070866141733,
          "duration": 0.2612299462890625
        },
        {
          "name": "B1",
          "midi": 35,
          "time": 0.266601029296875,
          "velocity": 0.5039370078740157,
          "duration": 0.24755809863281253
        },
        {
          "name": "D#2",
          "midi": 39,
          "time": 0.5288075361328125,
          "velocity": 0.5118110236220472,
          "duration": 0.23193312988281245
        },
        {
          "name": "D#2",
          "midi": 39,
          "time": 0.7753890742187499,
          "velocity": 0.5039370078740157,
          "duration": 0.10644509960937498
        },
        {
          "name": "D#2",
          "midi": 39,
          "time": 0.89062321875,
          "velocity": 0.5039370078740157,
          "duration": 0.11914038671875005
        },
        {
          "name": "D#2",
          "midi": 39,
          "time": 1.01757608984375,
          "velocity": 0.5275590551181102,
          "duration": 0.12060522753906255
        },
        {
          "name": "D#2",
          "midi": 39,
          "time": 1.13866959765625,
          "velocity": 0.5039370078740157,
          "duration": 0.12011694726562494
        },
        {
          "name": "B1",
          "midi": 35,
          "time": 1.2592748251953123,
          "velocity": 0.5039370078740157,
          "duration": 0.2460932578124999
        },
        {
          "name": "D#2",
          "midi": 39,
          "time": 1.5102508857421872,
          "velocity": 0.5118110236220472,
          "duration": 0.12060522753906255
        },
        {
          "name": "D#2",
          "midi": 39,
          "time": 1.6396451582031248,
          "velocity": 0.5039370078740157,
          "duration": 0.1123044628906249
        },
        {
          "name": "D#2",
          "midi": 39,
          "time": 1.7578089843749998,
          "velocity": 0.5039370078740157,
          "duration": 0.11523414453124992
        },
        {
          "name": "D#2",
          "midi": 39,
          "time": 1.873531409179687,
          "velocity": 0.5039370078740157,
          "duration": 0.12597631054687497
        },
        {
          "name": "B1",
          "midi": 35,
          "time": 2.0019491210937495,
          "velocity": 0.5433070866141733,
          "duration": 0.14257783984374983
        },
        {
          "name": "D#2",
          "midi": 39,
          "time": 2.147456642578124,
          "velocity": 0.5039370078740157,
          "duration": 0.11865210644531254
        },
        {
          "name": "D#2",
          "midi": 39,
          "time": 2.279292316406249,
          "velocity": 0.5039370078740157,
          "duration": 0.10839822070312488
        },
        {
          "name": "D#2",
          "midi": 39,
          "time": 2.3950147412109364,
          "velocity": 0.5039370078740157,
          "duration": 0.11914038671875016
        },
        {
          "name": "D#2",
          "midi": 39,
          "time": 2.514643408203124,
          "velocity": 0.5118110236220472,
          "duration": 0.2460932578124999
        },
        {
          "name": "D#2",
          "midi": 39,
          "time": 2.7641546279296865,
          "velocity": 0.5039370078740157,
          "duration": 0.11767554589843732
        },
        {
          "name": "D#2",
          "midi": 39,
          "time": 2.8862246962890614,
          "velocity": 0.5039370078740157,
          "duration": 0.12353490917968735
        },
        {
          "name": "D#2",
          "midi": 39,
          "time": 3.0180603701171864,
          "velocity": 0.5275590551181102,
          "duration": 0.12011694726562494
        },
        {
          "name": "D#2",
          "midi": 39,
          "time": 3.138665597656249,
          "velocity": 0.5039370078740157,
          "duration": 0.12011694726562494
        },
        {
          "name": "B1",
          "midi": 35,
          "time": 3.2592708251953115,
          "velocity": 0.5039370078740157,
          "duration": 0.2460932578124999
        },
        {
          "name": "D#2",
          "midi": 39,
          "time": 3.508782044921874,
          "velocity": 0.5118110236220472,
          "duration": 0.12207006835937495
        },
        {
          "name": "D#2",
          "midi": 39,
          "time": 3.632316954101561,
          "velocity": 0.5039370078740157,
          "duration": 0.11962866699218733
        },
        {
          "name": "D#2",
          "midi": 39,
          "time": 3.7665940292968734,
          "velocity": 0.5039370078740157,
          "duration": 0.10644509960937487
        },
        {
          "name": "D#2",
          "midi": 39,
          "time": 3.873527409179686,
          "velocity": 0.5039370078740157,
          "duration": 0.12597631054687497
        },
        {
          "name": "B1",
          "midi": 35,
          "time": 4.0019451210937484,
          "velocity": 0.5433070866141733,
          "duration": 0.14257783984375028
        },
        {
          "name": "D#2",
          "midi": 39,
          "time": 4.152823725585936,
          "velocity": 0.5039370078740157,
          "duration": 0.11328102343749968
        },
        {
          "name": "D#2",
          "midi": 39,
          "time": 4.27294067285156,
          "velocity": 0.5039370078740157,
          "duration": 0.11474586425781208
        },
        {
          "name": "D#2",
          "midi": 39,
          "time": 4.39208105957031,
          "velocity": 0.5039370078740157,
          "duration": 0.12207006835937495
        },
        {
          "name": "D#2",
          "midi": 39,
          "time": 4.5175690898437475,
          "velocity": 0.5118110236220472,
          "duration": 0.24316357617187467
        },
        {
          "name": "D#2",
          "midi": 39,
          "time": 4.76317406738281,
          "velocity": 0.5039370078740157,
          "duration": 0.1186521064453121
        },
        {
          "name": "D#2",
          "midi": 39,
          "time": 4.896474582031247,
          "velocity": 0.5039370078740157,
          "duration": 0.11328102343749968
        },
        {
          "name": "D#2",
          "midi": 39,
          "time": 5.010732166015622,
          "velocity": 0.5275590551181102,
          "duration": 0.12744115136718737
        },
        {
          "name": "D#2",
          "midi": 39,
          "time": 5.138661597656246,
          "velocity": 0.5039370078740157,
          "duration": 0.12011694726562538
        },
        {
          "name": "B1",
          "midi": 35,
          "time": 5.259266825195309,
          "velocity": 0.5039370078740157,
          "duration": 0.24609325781250035
        },
        {
          "name": "D#2",
          "midi": 39,
          "time": 5.5146374082031215,
          "velocity": 0.5118110236220472,
          "duration": 0.11621070507812536
        },
        {
          "name": "D#2",
          "midi": 39,
          "time": 5.641101999023435,
          "velocity": 0.5039370078740157,
          "duration": 0.11083962207031206
        },
        {
          "name": "D#2",
          "midi": 39,
          "time": 5.762195506835934,
          "velocity": 0.5039370078740157,
          "duration": 0.11083962207031206
        },
        {
          "name": "D#2",
          "midi": 39,
          "time": 5.8735234091796835,
          "velocity": 0.5039370078740157,
          "duration": 0.12597631054687497
        },
        {
          "name": "B1",
          "midi": 35,
          "time": 6.001941121093746,
          "velocity": 0.5433070866141733,
          "duration": 0.26415962792968717
        },
        {
          "name": "D#2",
          "midi": 39,
          "time": 6.2665890292968705,
          "velocity": 0.5039370078740157,
          "duration": 0.12109350781249972
        },
        {
          "name": "B1",
          "midi": 35,
          "time": 6.396471582031245,
          "velocity": 0.5039370078740157,
          "duration": 0.24365185644531273
        },
        {
          "name": "D#2",
          "midi": 39,
          "time": 6.640611718749995,
          "velocity": 0.5039370078740157,
          "duration": 0.12011694726562538
        },
        {
          "name": "B1",
          "midi": 35,
          "time": 6.761216946289058,
          "velocity": 0.5039370078740157,
          "duration": 0.2485346591796871
        },
        {
          "name": "D#2",
          "midi": 39,
          "time": 7.015610968749995,
          "velocity": 0.5275590551181102,
          "duration": 0.12255834863281212
        },
        {
          "name": "D#2",
          "midi": 39,
          "time": 7.14549352148437,
          "velocity": 0.5039370078740157,
          "duration": 0.11328102343749968
        },
        {
          "name": "B1",
          "midi": 35,
          "time": 7.259262825195306,
          "velocity": 0.5039370078740157,
          "duration": 0.12060522753906255
        },
        {
          "name": "D#2",
          "midi": 39,
          "time": 7.260239385742182,
          "velocity": 0.5039370078740157,
          "duration": 0.11962866699218733
        },
        {
          "name": "D#2",
          "midi": 39,
          "time": 7.380356333007806,
          "velocity": 0.5039370078740157,
          "duration": 0.12499974999999974
        },
        {
          "name": "D#2",
          "midi": 39,
          "time": 7.510238885742181,
          "velocity": 0.5118110236220472,
          "duration": 0.12060522753906255
        },
        {
          "name": "D#2",
          "midi": 39,
          "time": 7.631820673828119,
          "velocity": 0.5039370078740157,
          "duration": 0.12011694726562538
        },
        {
          "name": "D#2",
          "midi": 39,
          "time": 7.761214946289057,
          "velocity": 0.5039370078740157,
          "duration": 0.11181618261718729
        },
        {
          "name": "D#2",
          "midi": 39,
          "time": 7.873519409179681,
          "velocity": 0.5039370078740157,
          "duration": 0.12597631054687497
        },
        {
          "name": "B1",
          "midi": 35,
          "time": 7.999983999999993,
          "velocity": 0.5433070866141733,
          "duration": 0.26562446875000045
        },
        {
          "name": "D#2",
          "midi": 39,
          "time": 8.266096749023431,
          "velocity": 0.5039370078740157,
          "duration": 0.12304662890625018
        },
        {
          "name": "B1",
          "midi": 35,
          "time": 8.397444142578118,
          "velocity": 0.5039370078740157,
          "duration": 0.23681593261718703
        },
        {
          "name": "D#2",
          "midi": 39,
          "time": 8.634748355468743,
          "velocity": 0.5039370078740157,
          "duration": 0.12158178808593689
        },
        {
          "name": "B1",
          "midi": 35,
          "time": 8.756818423828117,
          "velocity": 0.5039370078740157,
          "duration": 0.2441401367187499
        },
        {
          "name": "D#2",
          "midi": 39,
          "time": 9.006329643554679,
          "velocity": 0.5039370078740157,
          "duration": 0.11767554589843776
        },
        {
          "name": "D#2",
          "midi": 39,
          "time": 9.130841113281242,
          "velocity": 0.5039370078740157,
          "duration": 0.11669898535156165
        },
        {
          "name": "B1",
          "midi": 35,
          "time": 9.248028378906241,
          "velocity": 0.5039370078740157,
          "duration": 0.12353490917968735
        },
        {
          "name": "D#2",
          "midi": 39,
          "time": 9.250958060546866,
          "velocity": 0.5039370078740157,
          "duration": 0.12060522753906255
        },
        {
          "name": "D#2",
          "midi": 39,
          "time": 9.377422651367178,
          "velocity": 0.5039370078740157,
          "duration": 0.12207006835937584
        },
        {
          "name": "D#2",
          "midi": 39,
          "time": 9.511211446289053,
          "velocity": 0.5118110236220472,
          "duration": 0.12988255273437588
        },
        {
          "name": "D#2",
          "midi": 39,
          "time": 9.654765846679679,
          "velocity": 0.5039370078740157,
          "duration": 0.10937478125000055
        },
        {
          "name": "D#2",
          "midi": 39,
          "time": 9.765117188476554,
          "velocity": 0.5039370078740157,
          "duration": 0.12060522753906255
        },
        {
          "name": "D#2",
          "midi": 39,
          "time": 9.886210696289053,
          "velocity": 0.5039370078740157,
          "duration": 0.12011694726562538
        },
        {
          "name": "B1",
          "midi": 35,
          "time": 10.008280764648429,
          "velocity": 0.5039370078740157,
          "duration": 0.4912099550781246
        },
        {
          "name": "B1",
          "midi": 35,
          "time": 10.501932121093741,
          "velocity": 0.5433070866141733,
          "duration": 0.26415962792968806
        },
        {
          "name": "D#2",
          "midi": 39,
          "time": 10.768533150390617,
          "velocity": 0.5039370078740157,
          "duration": 0.11914038671874927
        },
        {
          "name": "D#2",
          "midi": 39,
          "time": 10.895486021484366,
          "velocity": 0.5039370078740157,
          "duration": 0.1186521064453121
        },
        {
          "name": "D#2",
          "midi": 39,
          "time": 11.019020930664054,
          "velocity": 0.5118110236220472,
          "duration": 0.24169873535156228
        },
        {
          "name": "D#2",
          "midi": 39,
          "time": 11.272438392578115,
          "velocity": 0.5039370078740157,
          "duration": 0.10937478125000055
        },
        {
          "name": "D#2",
          "midi": 39,
          "time": 11.391578779296866,
          "velocity": 0.5039370078740157,
          "duration": 0.24658153808593752
        },
        {
          "name": "D#2",
          "midi": 39,
          "time": 11.641578279296866,
          "velocity": 0.5039370078740157,
          "duration": 0.11718726562500059
        },
        {
          "name": "D#2",
          "midi": 39,
          "time": 11.769995991210928,
          "velocity": 0.5039370078740157,
          "duration": 0.10986306152343772
        },
        {
          "name": "D#2",
          "midi": 39,
          "time": 11.880347333007803,
          "velocity": 0.5039370078740157,
          "duration": 0.12499975000000063
        },
        {
          "name": "B1",
          "midi": 35,
          "time": 12.017065809570303,
          "velocity": 0.5118110236220472,
          "duration": 0.4824209101562502
        },
        {
          "name": "B1",
          "midi": 35,
          "time": 12.50192812109374,
          "velocity": 0.5433070866141733,
          "duration": 0.26415962792968806
        },
        {
          "name": "D#2",
          "midi": 39,
          "time": 12.776341634765616,
          "velocity": 0.5039370078740157,
          "duration": 0.11132790234374923
        },
        {
          "name": "D#2",
          "midi": 39,
          "time": 12.892064059570304,
          "velocity": 0.5039370078740157,
          "duration": 0.12207006835937584
        },
        {
          "name": "D#2",
          "midi": 39,
          "time": 13.018040370117179,
          "velocity": 0.5118110236220472,
          "duration": 0.24267529589843662
        },
        {
          "name": "D#2",
          "midi": 39,
          "time": 13.262668787109366,
          "velocity": 0.5039370078740157,
          "duration": 0.11914038671874927
        },
        {
          "name": "D#2",
          "midi": 39,
          "time": 13.386203696289053,
          "velocity": 0.5039370078740157,
          "duration": 0.25195262109374994
        },
        {
          "name": "D#2",
          "midi": 39,
          "time": 13.647433642578116,
          "velocity": 0.5039370078740157,
          "duration": 0.11132790234374923
        },
        {
          "name": "B1",
          "midi": 35,
          "time": 13.765109188476552,
          "velocity": 0.5039370078740157,
          "duration": 0.24023389453125077
        },
        {
          "name": "D#2",
          "midi": 39,
          "time": 13.767062309570303,
          "velocity": 0.5039370078740157,
          "duration": 0.23828077343750032
        },
        {
          "name": "B1",
          "midi": 35,
          "time": 14.018038370117178,
          "velocity": 0.5118110236220472,
          "duration": 0.4814443496093759
        },
        {
          "name": "D#2",
          "midi": 39,
          "time": 14.019991491210929,
          "velocity": 0.5118110236220472,
          "duration": 0.4794912285156254
        },
        {
          "name": "B1",
          "midi": 35,
          "time": 14.501924121093742,
          "velocity": 0.5433070866141733,
          "duration": 0.26415962792968806
        },
        {
          "name": "D#2",
          "midi": 39,
          "time": 14.76998999121093,
          "velocity": 0.5039370078740157,
          "duration": 0.11767554589843776
        },
        {
          "name": "D#2",
          "midi": 39,
          "time": 14.89498974121093,
          "velocity": 0.5039370078740157,
          "duration": 0.11914038671874927
        },
        {
          "name": "D#2",
          "midi": 39,
          "time": 15.015106688476553,
          "velocity": 0.5118110236220472,
          "duration": 0.24560497753906319
        },
        {
          "name": "D#2",
          "midi": 39,
          "time": 15.266082749023429,
          "velocity": 0.5039370078740157,
          "duration": 0.11572242480468731
        },
        {
          "name": "D#2",
          "midi": 39,
          "time": 15.38278173437499,
          "velocity": 0.5039370078740157,
          "duration": 0.2553705830078119
        },
        {
          "name": "D#2",
          "midi": 39,
          "time": 15.64449996093749,
          "velocity": 0.5039370078740157,
          "duration": 0.1142575839843758
        },
        {
          "name": "D#2",
          "midi": 39,
          "time": 15.76559346874999,
          "velocity": 0.5039370078740157,
          "duration": 0.1142575839843758
        },
        {
          "name": "D#2",
          "midi": 39,
          "time": 15.880339333007804,
          "velocity": 0.5039370078740157,
          "duration": 0.12499975000000063
        },
        {
          "name": "B1",
          "midi": 35,
          "time": 16.00582736328124,
          "velocity": 0.5118110236220472,
          "duration": 0.24609325781250035
        },
        {
          "name": "D#2",
          "midi": 39,
          "time": 16.261686226562492,
          "velocity": 0.5039370078740157,
          "duration": 0.23779249316406137
        },
        {
          "name": "D#2",
          "midi": 39,
          "time": 16.50192012109374,
          "velocity": 0.5433070866141733,
          "duration": 0.2641596279296863
        },
        {
          "name": "D#2",
          "midi": 39,
          "time": 16.772427392578113,
          "velocity": 0.5039370078740157,
          "duration": 0.24169873535156228
        },
        {
          "name": "D#2",
          "midi": 39,
          "time": 17.019497210937487,
          "velocity": 0.5118110236220472,
          "duration": 0.12060522753906255
        },
        {
          "name": "D#2",
          "midi": 39,
          "time": 17.151332884765612,
          "velocity": 0.5039370078740157,
          "duration": 0.10937478125000055
        },
        {
          "name": "D#2",
          "midi": 39,
          "time": 17.26266078710936,
          "velocity": 0.5039370078740157,
          "duration": 0.2470698183593747
        },
        {
          "name": "D#2",
          "midi": 39,
          "time": 17.510218885742173,
          "velocity": 0.5275590551181102,
          "duration": 0.2485346591796862
        },
        {
          "name": "B1",
          "midi": 35,
          "time": 17.76021838574217,
          "velocity": 0.5039370078740157,
          "duration": 0.24511669726562602
        },
        {
          "name": "B1",
          "midi": 35,
          "time": 18.005823363281234,
          "velocity": 0.5118110236220472,
          "duration": 0.4936513564453122
        }
      ],
      "controlChanges": {
        "7": [
          {
            "number": 7,
            "time": 0,
            "value": 0.7952755905511811
          },
          {
            "number": 7,
            "time": 0,
            "value": 0.7480314960629921
          }
        ],
        "10": [
          {
            "number": 10,
            "time": 0,
            "value": 0.5039370078740157
          }
        ]
      },
      "id": 1,
      "name": "Dancers",
      "instrumentNumber": 0,
      "instrument": "standard kit",
      "instrumentFamily": "drums",
      "channelNumber": 9,
      "isPercussion": true
    }
  ]
}
